<svg width="335" height="433" viewBox="0 0 335 433" fill="none" xmlns="http://www.w3.org/2000/svg">
<path d="M335 22.5C335 10.0736 324.926 0 312.5 0H168.981C161.745 0 154.951 3.47957 150.723 9.35086L130.118 37.9615C125.889 43.8328 119.095 47.3124 111.86 47.3124H22.5C10.0736 47.3124 -3.05176e-05 57.3859 -3.05176e-05 69.8124V410.5C-3.05176e-05 422.926 10.0736 433 22.5 433H312.5C324.926 433 335 422.926 335 410.5V22.5Z" fill="white"/>
<path d="M312.5 0.375H168.98C162.088 0.375057 155.603 3.58629 151.424 9.03613L151.027 9.57031L130.422 38.1807C126.123 44.1498 119.215 47.6875 111.859 47.6875H22.5C10.2807 47.6875 0.375 57.5932 0.375 69.8125V410.5C0.375 422.719 10.2807 432.625 22.5 432.625H312.5C324.719 432.625 334.625 422.719 334.625 410.5V22.5C334.625 10.2807 324.719 0.375 312.5 0.375Z" stroke="#8BB1E1" stroke-opacity="0.12" stroke-width="0.75"/>
</svg>
